<svg id="Layer_1" data-name="Layer 1" xmlns="http://www.w3.org/2000/svg" viewBox="0 0 512 512"><title>left_arrow</title><path d="M182.26,303.54s6.19-.5-4.22-.46l-8.33-.19-6.12-.49-6.07.14s-1.73,1.29-5.2,15.57a28.31,28.31,0,0,0-3.47,13.42s1.78,55.88,5.44,60.08c0,0-5.23-35-3.56-37.26,0,0,4.28,33.52,7.59,36.08,0,0-4.91-32.49-.66-35.39,0,0,4.52,29.91,8.73,33.54,0,0-1.68-5.74-1.16-7.29L166.5,384l-.18-4.32-1-2.47s2.9,6.73,4.36,7.2c0,0-1.74,3.07-1.1-9.09C168.61,375.31,158.39,346.51,182.26,303.54Z" fill="#e6e4e3"/><path d="M191.17,112.82s7.74-.52-5.3-.49l-10.44-.21-7.66-.54-7.61.16s-2.18,1.39-6.51,16.89a27.76,27.76,0,0,0-4.36,14.58s2.25,60.67,6.84,65.23c0,0-6.56-38.05-4.48-40.45,0,0,5.37,36.4,9.53,39.2,0,0-6.15-35.31-.85-38.44,0,0,5.68,32.47,11,36.42,0,0-2.11-6.24-1.47-7.91l1.6,2.92-.22-4.68-1.23-2.7s3.64,7.31,5.49,7.83c0,0-2.2,3.33-1.38-9.88C174.07,190.74,161.25,159.48,191.17,112.82Z" fill="#e6e4e3"/><path d="M510.68,212.68s4.47-.61-3-.57l-6-.25-4.4-.63-4.4.19s-1.25,1.63-3.75,19.79a57.7,57.7,0,0,0-2.49,17.05s1.29,71,3.92,76.34c0,0-3.76-44.53-2.57-47.33,0,0,3.09,42.58,5.48,45.85,0,0-3.53-41.3-.47-45,0,0,3.25,38,6.3,42.62,0,0-1.22-7.3-.86-9.24l.92,3.4-.13-5.47-.7-3.16s2.1,8.56,3.16,9.15c0,0-1.27,3.91-.79-11.55C500.85,303.88,493.45,267.31,510.68,212.68Z" fill="#e6e4e3"/><path d="M500.88,230.32s1.83,8.49,1.72-5.77l.73-11.42,1.83-8.37-.55-8.32s-4.8-2.39-58.25-7.13a255.33,255.33,0,0,0-50.21-4.76S187.08,187,171.37,192c0,0,131.09-7.17,139.36-4.9,0,0-125.36,5.89-135,10.43,0,0,121.59-6.73,132.43-.92,0,0-111.95,6.18-125.49,12,0,0,21.48-2.31,27.21-1.61l-10,1.75,16.12-.24,9.3-1.34s-25.22,4-27,6c0,0-11.51-2.41,34-1.5C232.36,211.64,340.05,197.62,500.88,230.32Z" fill="#e6e4e3"/><path d="M496.89,338s2.12,8.48,2-5.77l.85-11.41,2.11-8.38-.61-8.31s-1.4-.6-10.51-1.79c-4.54-.59-11-1.34-20.25-2.22-2.3-.23-4.78-.45-7.42-.7l-.5,0-.25,0-.12,0h-.07c0,63.73,0,17.67,0,31.89h0l1,.1,2.1.17,4.4.4c3,.26,6.25.54,9.69.8l5.31.43,1.36.11.69.05.35,0h.19c0-16.1,0,36.06,0-36.09l0,0h-.09l-2.86-.22a339.42,339.42,0,0,0-58-4.76s-241.7,2.46-259.85,7.48c0,0,151.55-7.16,161.1-4.89,0,0-144.93,5.87-156.06,10.42,0,0,140.58-6.75,153.09-.93,0,0-129.4,6.19-145.06,12,0,0,24.82-2.31,31.46-1.6l-11.57,1.73,18.64-.24,10.76-1.33s-29.16,4-31.2,6c0,0-13.29-2.41,39.33-1.51,0,0,31.12-3.49,85.49-2.91,27.18.29,60.18,1.6,98,4.9,18.9,1.62,39,3.76,60.21,6.51l4,.52,2,.27.5.07.13,0c0,24,.14-32.7.06-26.85l-.25-.05-1-.13-8.09-1.13-8.2-1.17-4.14-.6-2.08-.32-1-.16-.24,0c0,15.2-.13-34-.1,34.06l.12,0,.53.07Q479.46,335,496.89,338Z" fill="#e6e4e3"/><path d="M137.83,406.93s-5.92,7.39,5.54-3.77l9.61-8.57,7.72-5.73,6.46-6.71s-.54-4.16-24.73-31.26a105.85,105.85,0,0,0-22.23-25.57c.15-.1-27.74-21.93-54-45.49-26.9-23.36-48.6-49.87-53-52.77-.18.06,12.29,15.71,28,30.57,15.44,15,33.34,29.49,34.31,32.21,0,0-16.34-12.81-32.28-26.74-16.2-13.78-30.64-29.45-34.37-30.9-.25.09,12.07,14.95,26.6,29.53,14.35,14.69,30.66,29.35,30.75,34,0,0-14.95-11.45-30.27-24.23C20.42,259,5.47,244.12,0,241.91c.06,0,10.5,10.33,12.35,13.59l-5.82-4.18,6.93,8.31,5.23,3.93c-.13.16-14.43-10.58-17.11-10.48.24-.17-2.86-7.24,16,17,0,0,14.9,11.6,37.48,33.86C77.44,326.16,109.63,359.25,137.83,406.93Z" fill="#e6e4e3"/><path d="M176.55,119.15s8.7,2.44-4.92-3.54L161,110.32l-7.51-4.45-8.11-3.19c-.63-.23-1.81,2-23.64,22a109.26,109.26,0,0,0-22.78,17.5c.23.09-20.67,21.3-44.59,43C30.58,206.8,5.55,230.77,3.94,236.25c-.13-1,55.53-57.39,60.4-58.68.47-.06-53.39,52.78-54.36,60.79-.23-.72,51.22-53,59.93-52.75.32,0-47.12,48-48.76,57.89,0,0,8-10.25,11.12-12L29,236.74l7.16-6.51,3.32-4.62s-8.7,12.82-8,15c.06,0-7,2.68,14.4-14.39,0,0,9.94-13,31.84-31,10.89-9.06,24.72-19.32,41.33-30.95C135.43,152.07,155.28,140.88,176.55,119.15Z" fill="#e6e4e3"/></svg>