<svg id="Layer_1" data-name="Layer 1" xmlns="http://www.w3.org/2000/svg" viewBox="0 0 512 512"><title>email</title><rect x="0.04" width="511.91" height="512" fill="#7f807e"/><path d="M386.78,176.63a12.2,12.2,0,0,0-12.2-12.2H139.14a12.2,12.2,0,0,0-12.2,12.2V336.8a12.2,12.2,0,0,0,12.2,12.2H374.58a12.2,12.2,0,0,0,12.2-12.2ZM212.11,268.2l32.22,31.45c4.75,4.76,12.48,4.37,17.23-.39l32.22-30.86,57.38,58.73H154.73ZM148.8,318.88V199.09L208.7,259ZM307.46,259l59.9-59.9V318.88Zm59.9-72.69v-2.53L258.08,291.51,148.8,183.76v2.53Z" fill="#fff"/></svg>